<svg width="1056" height="3367" viewBox="0 0 1056 3367" fill="none" xmlns="http://www.w3.org/2000/svg">
<path d="M451.422 1810.57L488.805 1811.51L510.456 1812.29L580.393 3364.76V3366.63H854.844V3205.1L795.499 3201.83L798.148 908.869L810.608 1373.35L893.785 1796.71L891.604 1973.97L942.538 2036.27L1012.16 1996.24L990.62 1847.07L1034.9 1947.02L1055.15 1936.27L1027.12 1803.72L1000.01 1753.88L956.557 1364.47L922.757 711.052L614.972 573.359L607.807 472.737L746.902 432.083L735.376 400.931L719.8 360.277L694.566 362.458L729.145 349.686L708.429 310.745L703.133 288.004L739.114 273.363L680.236 185.513L682.728 134.423C678.834 124.299 655.831 66.1998 650.535 56.5425C630.959 30.6612 616.374 24.5368 587.558 12.2317C554.241 0.0418873 522 -0.114015 483.353 0.886006L454.071 6.67408C376.19 24.8982 320.793 65.425 293.535 140.658L284.948 164.076C256.132 244.137 280.025 340.596 328 411L375.723 472.426L377.28 578.499L76.8164 729.12L0.0256348 1361.67L31.1779 1830.67L0.0256348 1976.15L34.9165 2066.18L102.205 2052V1889.22L131.488 2005.27L157.345 2006.36L153.763 1862.44L142.392 1816.65L145.975 1369.61L217.624 889.088L172.142 2158.08L157.501 3363.98H161.083V3365.85H438.806L438.027 3204.33H368.246" fill="#DA5B44"/>
</svg>
