<svg width="206" height="362" viewBox="0 0 206 362" fill="none" xmlns="http://www.w3.org/2000/svg">
<path d="M174.785 216.25L202.669 195.364L168.754 186.629L193.164 161.697L157.513 152.176L180.555 123.162L156.727 123.828L137.777 124.983L167.303 147.225L136.814 167.552L166.482 188.224L132.186 197.804L118.53 220.213L154.443 176.037L119.149 138.086L132.198 87.7688L98.3547 92.3268L116.555 63.6814L82.5689 65.7879L107.169 41.772L75.6931 27.9432L89.6231 0L99.2588 39.2252L65.2962 56.9694L96.7844 79.4025L69.6738 107.429L104.16 126.256L75.5147 152.676L104.41 177.275L68.5794 188.2L52.7699 216.893L84.7102 170.444L48.3565 135.539L55.72 80.057L66.5928 128.601L28.6927 152.985L44.5856 194.805L3.62823 213.739L26.7418 251.798L0 287.584L31.9998 285.311L7.9821 306.744L39.5298 299.152L22.1619 328.297L53.4004 315.777L47.5238 348.79L65.0464 323.358L54.3163 352.444L68.3058 324.512L71.1251 358.097L89.9324 330.344L100.972 362L111.928 330.32L130.806 358.025L133.59 324.417L154.896 348.992L147.342 317.574L173.786 335.925L168.849 286.739L206 254.607L174.785 216.25Z" fill="#DA5B44"/>
</svg>
