<svg width="397" height="970" viewBox="0 0 397 970" fill="none" xmlns="http://www.w3.org/2000/svg">
<line x1="150.5" y1="970" x2="150.5" y2="193" stroke="#4B965B" stroke-width="39"/>
<rect x="174" width="129" height="128" fill="#9E338D"/>
<rect width="128" height="128" fill="#9E338D"/>
<rect x="174" y="175" width="129" height="128" fill="#9E338D"/>
<rect y="175" width="128" height="128" fill="#9E338D"/>
<circle cx="151.5" cy="151.5" r="87.5" fill="#E6DF3B"/>
<circle cx="151.5" cy="151.5" r="87.5" fill="#E6DF3B"/>
<circle cx="151.5" cy="151.5" r="87.5" fill="#E6DF3B"/>
<path d="M173.994 576.421C153.052 613.721 153.374 683.999 153.374 683.999C153.374 683.999 256.81 681.207 298.806 639.151C331.087 606.823 343.985 577.811 346.156 532.177C348.089 491.536 317.399 432.039 317.399 432.039C317.399 432.039 299.476 471.44 282.85 493.303C250.475 535.878 200.179 529.782 173.994 576.421Z" fill="#4B965B"/>
</svg>
