<svg width="391" height="928" viewBox="0 0 391 928" fill="none" xmlns="http://www.w3.org/2000/svg">
<line x1="238.5" y1="932" x2="238.5" y2="155" stroke="#4B965B" stroke-width="39"/>
<rect x="263" width="128" height="129" fill="#9E338D"/>
<rect x="88" width="128" height="129" fill="#9E338D"/>
<rect x="263" y="175" width="128" height="128" fill="#9E338D"/>
<rect x="88" y="175" width="128" height="128" fill="#9E338D"/>
<ellipse cx="239.5" cy="152" rx="87.5" ry="87" fill="#E6DF3B"/>
<ellipse cx="239.5" cy="152" rx="87.5" ry="87" fill="#E6DF3B"/>
<ellipse cx="239.5" cy="152" rx="87.5" ry="87" fill="#E6DF3B"/>
<path d="M222.392 476.421C243.333 513.721 243.011 583.999 243.011 583.999C243.011 583.999 139.576 581.207 97.5799 539.151C65.2988 506.823 52.4003 477.811 50.2298 432.177C48.2968 391.536 78.9869 332.039 78.9869 332.039C78.9869 332.039 96.9095 371.44 113.535 393.303C145.911 435.878 196.207 429.782 222.392 476.421Z" fill="#4B965B"/>
</svg>
