<svg width="482" height="1045" viewBox="0 0 482 1045" fill="none" xmlns="http://www.w3.org/2000/svg">
<path d="M235.5 1045L235.5 157" stroke="#4B965B" stroke-width="39"/>
<rect x="258" width="128" height="128" fill="#9E338D"/>
<rect x="84" width="128" height="128" fill="#9E338D"/>
<rect x="258" y="175" width="128" height="128" fill="#9E338D"/>
<rect x="84" y="175" width="128" height="128" fill="#9E338D"/>
<ellipse cx="235" cy="152.5" rx="87" ry="87.5" fill="#E6DF3B"/>
<ellipse cx="235" cy="152.5" rx="87" ry="87.5" fill="#E6DF3B"/>
<ellipse cx="235" cy="152.5" rx="87" ry="87.5" fill="#E6DF3B"/>
<path d="M258.994 477.421C238.052 514.721 238.374 584.999 238.374 584.999C238.374 584.999 341.81 582.207 383.806 540.151C416.087 507.823 428.985 478.811 431.156 433.177C433.089 392.536 402.399 333.039 402.399 333.039C402.399 333.039 384.476 372.44 367.85 394.303C335.475 436.878 285.179 430.782 258.994 477.421Z" fill="#4B965B"/>
<path d="M222.392 625.421C243.333 662.721 243.011 732.999 243.011 732.999C243.011 732.999 139.576 730.207 97.5799 688.151C65.2988 655.823 52.4003 626.811 50.2298 581.177C48.2968 540.536 78.9869 481.039 78.9869 481.039C78.9869 481.039 96.9095 520.44 113.535 542.303C145.911 584.878 196.207 578.782 222.392 625.421Z" fill="#4B965B"/>
</svg>
