<svg width="446" height="1316" viewBox="0 0 446 1316" fill="none" xmlns="http://www.w3.org/2000/svg">
<path d="M222.994 825.421C202.052 862.721 202.374 932.999 202.374 932.999C202.374 932.999 305.81 930.207 347.806 888.151C380.087 855.823 392.985 826.811 395.156 781.177C397.089 740.536 366.399 681.039 366.399 681.039C366.399 681.039 348.476 720.44 331.85 742.303C299.475 784.878 249.179 778.782 222.994 825.421Z" fill="#4B965B"/>
<path d="M186.392 502.421C207.333 539.721 207.011 609.999 207.011 609.999C207.011 609.999 103.576 607.207 61.5799 565.151C29.2988 532.823 16.4003 503.811 14.2298 458.177C12.2968 417.536 42.9869 358.039 42.9869 358.039C42.9869 358.039 60.9095 397.44 77.5355 419.303C109.911 461.878 160.207 455.782 186.392 502.421Z" fill="#4B965B"/>
<path d="M204.5 1316L204.5 169" stroke="#4B965B" stroke-width="39"/>
<rect x="228" width="128" height="128" fill="#9E338D"/>
<rect x="53" width="128" height="128" fill="#9E338D"/>
<rect x="228" y="175" width="128" height="128" fill="#9E338D"/>
<rect x="53" y="175" width="128" height="128" fill="#9E338D"/>
<circle cx="204.5" cy="151.5" r="87.5" fill="#E6DF3B"/>
<circle cx="204.5" cy="151.5" r="87.5" fill="#E6DF3B"/>
<circle cx="204.5" cy="151.5" r="87.5" fill="#E6DF3B"/>
</svg>
