<svg width="1440" height="2865" viewBox="0 0 1440 2865" fill="none" xmlns="http://www.w3.org/2000/svg">
<line x1="-27" y1="7.00012" x2="123.013" y2="7.00012" stroke="#DA5B44" stroke-opacity="0.5" stroke-width="14"/>
<line x1="116.007" y1="164.013" x2="116.007" y2="14" stroke="#DA5B44" stroke-opacity="0.5" stroke-width="14"/>
<line x1="123.007" y1="157" x2="273.02" y2="157" stroke="#DA5B44" stroke-opacity="0.5" stroke-width="14"/>
<line x1="266.013" y1="314.013" x2="266.013" y2="164" stroke="#DA5B44" stroke-opacity="0.5" stroke-width="14"/>
<line x1="273.007" y1="307" x2="423.02" y2="307" stroke="#DA5B44" stroke-opacity="0.5" stroke-width="14"/>
<line x1="416.013" y1="464.013" x2="416.013" y2="314" stroke="#DA5B44" stroke-opacity="0.5" stroke-width="14"/>
<line x1="423.013" y1="457" x2="573.027" y2="457" stroke="#DA5B44" stroke-opacity="0.5" stroke-width="14"/>
<line x1="566.02" y1="614.013" x2="566.02" y2="464" stroke="#DA5B44" stroke-opacity="0.5" stroke-width="14"/>
<line x1="573.007" y1="607" x2="723.02" y2="607" stroke="#DA5B44" stroke-opacity="0.5" stroke-width="14"/>
<line x1="716.013" y1="764.013" x2="716.013" y2="614" stroke="#DA5B44" stroke-opacity="0.5" stroke-width="14"/>
<line x1="723.013" y1="757" x2="873.027" y2="757" stroke="#DA5B44" stroke-opacity="0.5" stroke-width="14"/>
<line x1="866.02" y1="914.013" x2="866.02" y2="764" stroke="#DA5B44" stroke-opacity="0.5" stroke-width="14"/>
<line x1="873.013" y1="907" x2="1023.03" y2="907" stroke="#DA5B44" stroke-opacity="0.5" stroke-width="14"/>
<line x1="1016.02" y1="1064.01" x2="1016.02" y2="914" stroke="#DA5B44" stroke-opacity="0.5" stroke-width="14"/>
<line x1="1023.02" y1="1057" x2="1173.03" y2="1057" stroke="#DA5B44" stroke-opacity="0.5" stroke-width="14"/>
<line x1="1166.03" y1="1214.01" x2="1166.03" y2="1064" stroke="#DA5B44" stroke-opacity="0.5" stroke-width="14"/>
<line x1="1173.01" y1="1207" x2="1323.02" y2="1207" stroke="#DA5B44" stroke-opacity="0.5" stroke-width="14"/>
<line x1="1316.01" y1="1364.01" x2="1316.01" y2="1214" stroke="#DA5B44" stroke-opacity="0.5" stroke-width="14"/>
<line x1="1323.01" y1="1357" x2="1473.03" y2="1357" stroke="#DA5B44" stroke-opacity="0.5" stroke-width="14"/>
<line x1="-26.9933" y1="1357" x2="123.02" y2="1357" stroke="#DA5B44" stroke-opacity="0.5" stroke-width="14"/>
<line x1="116.013" y1="1514.01" x2="116.013" y2="1364" stroke="#DA5B44" stroke-opacity="0.5" stroke-width="14"/>
<line x1="123.013" y1="1507" x2="273.027" y2="1507" stroke="#DA5B44" stroke-opacity="0.5" stroke-width="14"/>
<line x1="266.02" y1="1664.01" x2="266.02" y2="1514" stroke="#DA5B44" stroke-opacity="0.5" stroke-width="14"/>
<line x1="273.013" y1="1657" x2="423.027" y2="1657" stroke="#DA5B44" stroke-opacity="0.5" stroke-width="14"/>
<line x1="416.02" y1="1814.01" x2="416.02" y2="1664" stroke="#DA5B44" stroke-opacity="0.5" stroke-width="14"/>
<line x1="423.02" y1="1807" x2="573.033" y2="1807" stroke="#DA5B44" stroke-opacity="0.5" stroke-width="14"/>
<line x1="566.026" y1="1964.01" x2="566.026" y2="1814" stroke="#DA5B44" stroke-opacity="0.5" stroke-width="14"/>
<line x1="573.013" y1="1957" x2="723.027" y2="1957" stroke="#DA5B44" stroke-opacity="0.5" stroke-width="14"/>
<line x1="716.02" y1="2114.01" x2="716.02" y2="1964" stroke="#DA5B44" stroke-opacity="0.5" stroke-width="14"/>
<line x1="723.02" y1="2107" x2="873.033" y2="2107" stroke="#DA5B44" stroke-opacity="0.5" stroke-width="14"/>
<line x1="866.026" y1="2264.01" x2="866.026" y2="2114" stroke="#DA5B44" stroke-opacity="0.5" stroke-width="14"/>
<line x1="873.02" y1="2257" x2="1023.03" y2="2257" stroke="#DA5B44" stroke-opacity="0.5" stroke-width="14"/>
<line x1="1016.03" y1="2414.01" x2="1016.03" y2="2264" stroke="#DA5B44" stroke-opacity="0.5" stroke-width="14"/>
<line x1="1023.03" y1="2407" x2="1173.04" y2="2407" stroke="#DA5B44" stroke-opacity="0.5" stroke-width="14"/>
<line x1="1166.03" y1="2564.01" x2="1166.03" y2="2414" stroke="#DA5B44" stroke-opacity="0.5" stroke-width="14"/>
<line x1="1173.01" y1="2557" x2="1323.03" y2="2557" stroke="#DA5B44" stroke-opacity="0.5" stroke-width="14"/>
<line x1="1316.02" y1="2714.01" x2="1316.02" y2="2564" stroke="#DA5B44" stroke-opacity="0.5" stroke-width="14"/>
<line x1="1323.02" y1="2707" x2="1473.03" y2="2707" stroke="#DA5B44" stroke-opacity="0.5" stroke-width="14"/>
</svg>
