<svg width="366" height="359" viewBox="0 0 366 359" fill="none" xmlns="http://www.w3.org/2000/svg">
<path d="M97.307 329.024L111.572 335.969L123.73 310.996L128.742 313.436L114.143 343.421L94.867 334.036L97.307 329.024Z" fill="black"/>
<path d="M70.9974 317.799C69.1661 316.326 67.7249 314.595 66.6738 312.608C65.5979 310.601 64.9315 308.516 64.6746 306.353C64.3929 304.169 64.5403 301.985 65.1168 299.799C65.6933 297.613 66.7182 295.604 68.1915 293.773C69.6649 291.941 71.4075 290.51 73.4193 289.479C75.4312 288.448 77.5436 287.824 79.7565 287.606C81.9248 287.394 84.1044 287.599 86.2952 288.22C88.4613 288.821 90.46 289.858 92.2913 291.332C94.1474 292.825 95.6133 294.575 96.6891 296.582C97.765 298.589 98.4438 300.684 98.7254 302.868C98.9625 305.056 98.7927 307.243 98.2163 309.429C97.6398 311.615 96.6149 313.624 95.1415 315.455C93.6682 317.286 91.9256 318.717 89.9137 319.749C87.9019 320.78 85.8118 321.401 83.6435 321.614C81.4504 321.806 79.2585 321.592 77.0677 320.971C74.8769 320.349 72.8534 319.292 70.9974 317.799ZM90.7612 311.931C91.7567 310.693 92.4574 309.341 92.8632 307.874C93.2443 306.387 93.3551 304.906 93.1954 303.433C92.9912 301.964 92.5337 300.556 91.8231 299.21C91.0878 297.844 90.089 296.653 88.8269 295.638C87.5896 294.642 86.2373 293.941 84.7701 293.536C83.2782 293.11 81.8053 292.964 80.3515 293.099C78.8778 293.259 77.4678 293.694 76.1216 294.405C74.7506 295.095 73.5673 296.059 72.5718 297.297C71.5763 298.534 70.898 299.884 70.5368 301.346C70.131 302.814 70.0178 304.272 70.1973 305.721C70.357 307.194 70.8045 308.614 71.5398 309.98C72.2504 311.327 73.2244 312.497 74.4618 313.493C75.7239 314.508 77.1009 315.229 78.5928 315.655C80.06 316.061 81.5428 316.194 83.0413 316.054C84.4951 315.919 85.9074 315.506 87.2784 314.816C88.6048 314.13 89.7657 313.168 90.7612 311.931Z" fill="black"/>
<path d="M32.9043 275.522L50.6647 262.12L63.9519 279.728L72.813 273.042L76.1707 277.491L49.5492 297.58L32.9043 275.522ZM49.5728 269.927L40.7116 276.614L50.6411 289.773L59.5023 283.086L49.5728 269.927Z" fill="black"/>
<path d="M39.197 252.549L23.8354 259.036L13.0851 233.58L43.8084 220.605L45.977 225.741L35.7505 230.059L44.3322 250.381L54.5587 246.062L56.7273 251.197L41.3656 257.684L39.197 252.549ZM26.802 251.733L37.0284 247.414L30.6154 232.228L20.3889 236.546L26.802 251.733Z" fill="black"/>
<path d="M42.2953 216.05L9.17204 219.937L8.52235 214.4L36.1093 211.163L35.1375 202.882L7.5506 206.12L6.90091 200.583L34.4878 197.346L33.5161 189.065L5.92916 192.302L5.27947 186.766L32.8664 183.529L32.2112 177.945L43.6623 176.601L44.312 182.138L38.3971 182.832L42.2953 216.05Z" fill="black"/>
<path d="M6.4836 162.751L27.5946 165.898L14.1801 146.99L8.94949 146.21L9.77145 140.697L42.7574 145.615L41.9354 151.128L21.6255 148.1L35.1012 166.921L39.4695 167.668L38.6476 173.182L5.66163 168.264L6.4836 162.751Z" fill="black"/>
<path d="M13.0569 128.634L15.1085 123.451L34.9546 131.307L26.1804 109.848L21.2632 107.902L23.3147 102.719L54.3244 114.993L52.2728 120.176L33.1797 112.619L42.0333 134.006L46.1181 135.725L44.0665 140.908L13.0569 128.634ZM13.0945 104.72L18.1447 106.719L11.9549 122.356L6.90475 120.357L13.0945 104.72Z" fill="black"/>
<path d="M48.1693 64.8624L72.2391 41.8466L83.7634 53.8988L79.7346 57.7512L72.0627 49.7279L66.071 55.4572L85.2673 75.5325L81.2385 79.385L62.0422 59.3096L56.0506 65.0388L63.7225 73.0621L59.6936 76.9145L48.1693 64.8624Z" fill="black"/>
<path d="M88.8018 30.5463L92.7525 34.7814L115.115 23.2596L113.832 17.6497L118.999 14.9875L126.481 48.6494L116.232 53.9302L113.679 48.975L120.032 45.7017L116.482 28.8258L91.5363 41.6788L83.6348 33.2085L88.8018 30.5463Z" fill="black"/>
<path d="M159.249 5.53982L163.811 27.3169L142.22 31.8389L144.496 42.7041L139.04 43.8469L132.203 11.2046L159.249 5.53982ZM157.212 23.0037L154.936 12.1385L138.802 15.5178L141.077 26.383L157.212 23.0037Z" fill="black"/>
<path d="M265.546 29.0654L251.156 22.3842L239.459 47.5773L234.403 45.2298L248.447 14.9808L267.893 24.0095L265.546 29.0654Z" fill="black"/>
<path d="M292.058 39.8049C293.916 41.2443 295.388 42.9477 296.476 44.9151C297.589 46.902 298.293 48.9746 298.59 51.133C298.912 53.3108 298.805 55.4978 298.268 57.694C297.732 59.8903 296.744 61.9174 295.305 63.7755C293.866 65.6336 292.15 67.0967 290.157 68.1647C288.165 69.2328 286.064 69.8957 283.855 70.1535C281.691 70.4056 279.508 70.2413 277.307 69.6606C275.13 69.0993 273.112 68.099 271.254 66.6596C269.371 65.2007 267.873 63.4779 266.761 61.491C265.648 59.5041 264.931 57.4218 264.609 55.244C264.332 53.0605 264.461 50.8706 264.997 48.6744C265.533 46.4782 266.521 44.451 267.961 42.5929C269.4 40.7348 271.116 39.2717 273.109 38.2037C275.101 37.1357 277.179 36.4756 279.343 36.2234C281.533 35.9908 283.728 36.1648 285.93 36.7455C288.132 37.3262 290.174 38.346 292.058 39.8049ZM272.405 46.0358C271.432 47.2913 270.757 48.6562 270.378 50.1306C270.024 51.6245 269.941 53.1067 270.128 54.5772C270.359 56.042 270.842 57.4409 271.577 58.7739C272.338 60.1263 273.358 61.2985 274.639 62.2905C275.894 63.2631 277.259 63.9388 278.734 64.3175C280.233 64.7158 281.708 64.8341 283.159 64.6725C284.63 64.4858 286.032 64.0248 287.365 63.2895C288.723 62.5737 289.888 61.5881 290.861 60.3326C291.833 59.0771 292.487 57.715 292.821 56.2463C293.2 54.7719 293.286 53.312 293.08 51.8666C292.893 50.3961 292.419 48.9846 291.659 47.6322C290.924 46.2993 289.928 45.1465 288.673 44.1739C287.392 43.1819 286.002 42.4868 284.503 42.0886C283.028 41.7098 281.543 41.604 280.048 41.7713C278.597 41.9329 277.192 42.3716 275.834 43.0874C274.521 43.7975 273.378 44.7803 272.405 46.0358Z" fill="black"/>
<path d="M330.922 81.3738L313.411 95.1003L299.802 77.7396L291.066 84.5881L287.627 80.2011L313.874 59.626L330.922 81.3738ZM314.359 87.2743L323.096 80.4258L312.926 67.452L304.19 74.3006L314.359 87.2743Z" fill="black"/>
<path d="M325.053 104.459L340.293 97.6899L351.51 122.944L321.03 136.482L318.768 131.387L328.913 126.881L319.959 106.721L309.813 111.227L307.551 106.133L322.79 99.3643L325.053 104.459ZM337.461 105.047L327.316 109.553L334.007 124.619L344.152 120.113L337.461 105.047Z" fill="black"/>
<path d="M322.627 141.009L355.673 136.513L356.424 142.037L328.902 145.781L330.026 154.042L357.548 150.298L358.3 155.822L330.777 159.566L331.901 167.827L359.424 164.083L360.175 169.606L332.653 173.351L333.41 178.921L321.986 180.476L321.234 174.952L327.136 174.15L322.627 141.009Z" fill="black"/>
<path d="M359.413 193.64L338.248 190.882L352.008 209.539L357.252 210.223L356.532 215.75L323.461 211.44L324.181 205.913L344.543 208.567L330.724 189.997L326.342 189.33L327.063 183.803L360.134 188.113L359.413 193.64Z" fill="black"/>
<path d="M353.469 227.872L351.513 233.092L331.526 225.603L340.693 246.896L345.645 248.751L343.69 253.971L312.459 242.27L314.415 237.05L333.644 244.255L324.398 223.034L320.283 221.39L322.239 216.17L353.469 227.872ZM353.871 251.783L348.785 249.877L354.686 234.128L359.772 236.034L353.871 251.783Z" fill="black"/>
<path d="M319.536 292.279L295.894 315.734L284.149 303.896L288.107 299.97L295.925 307.85L301.81 302.012L282.248 282.293L286.205 278.367L305.767 298.086L311.653 292.247L303.834 284.367L307.792 280.441L319.536 292.279Z" fill="black"/>
<path d="M279.542 327.337L275.514 323.175L253.367 335.106L254.753 340.692L249.636 343.449L241.535 309.93L251.686 304.462L254.33 309.369L248.038 312.759L251.898 329.566L276.603 316.257L284.659 324.58L279.542 327.337Z" fill="black"/>
<path d="M209.566 353.635L204.605 331.946L226.108 327.027L223.633 316.206L229.067 314.963L236.504 347.474L209.566 353.635ZM211.282 336.137L213.757 346.958L229.827 343.283L227.351 332.461L211.282 336.137Z" fill="black"/>
</svg>
