<svg width="362" height="355" viewBox="0 0 362 355" fill="none" xmlns="http://www.w3.org/2000/svg">
<path d="M96.8109 325.616L110.655 332.356L122.456 308.118L127.32 310.486L113.151 339.589L94.4427 330.48L96.8109 325.616Z" fill="#F2E6D9"/>
<path d="M70.7306 314.446C68.9532 313.016 67.5544 311.337 66.5343 309.408C65.4901 307.46 64.8433 305.436 64.594 303.337C64.3206 301.218 64.4636 299.097 65.0231 296.976C65.5827 294.854 66.5774 292.904 68.0074 291.127C69.4373 289.35 71.1286 287.961 73.0812 286.96C75.0338 285.959 77.084 285.353 79.2318 285.142C81.3363 284.936 83.4517 285.135 85.578 285.738C87.6803 286.321 89.6201 287.328 91.3975 288.758C93.1989 290.207 94.6217 291.906 95.6658 293.854C96.71 295.802 97.3688 297.835 97.6422 299.954C97.8722 302.078 97.7075 304.201 97.148 306.322C96.5885 308.444 95.5937 310.393 94.1638 312.171C92.7338 313.948 91.0425 315.337 89.0899 316.338C87.1373 317.339 85.1088 317.942 83.0043 318.148C80.8759 318.335 78.7485 318.127 76.6222 317.524C74.4958 316.921 72.532 315.895 70.7306 314.446ZM89.9125 308.75C90.8787 307.55 91.5587 306.237 91.9526 304.813C92.3225 303.37 92.4299 301.933 92.275 300.503C92.0767 299.077 91.6328 297.711 90.9431 296.404C90.2294 295.078 89.2601 293.923 88.0351 292.937C86.8342 291.971 85.5217 291.291 84.0978 290.897C82.6498 290.484 81.2203 290.343 79.8093 290.474C78.379 290.629 77.0105 291.051 75.7039 291.74C74.3733 292.411 73.2249 293.346 72.2587 294.547C71.2925 295.748 70.6341 297.058 70.2836 298.478C69.8897 299.902 69.7798 301.317 69.9541 302.723C70.109 304.153 70.5433 305.532 71.257 306.857C71.9467 308.164 72.892 309.301 74.0929 310.267C75.3179 311.252 76.6544 311.952 78.1024 312.365C79.5263 312.759 80.9655 312.888 82.4198 312.752C83.8308 312.621 85.2016 312.221 86.5322 311.55C87.8195 310.885 88.9463 309.951 89.9125 308.75Z" fill="#F2E6D9"/>
<path d="M33.127 272.867L50.3644 259.86L63.2603 276.949L71.8605 270.46L75.1193 274.778L49.2817 294.275L33.127 272.867ZM49.3046 267.437L40.7043 273.927L50.3415 286.698L58.9417 280.208L49.3046 267.437Z" fill="#F2E6D9"/>
<path d="M38.8023 249.968L23.893 256.264L13.4593 231.557L43.278 218.965L45.3827 223.949L35.4574 228.14L43.7863 247.863L53.7117 243.672L55.8164 248.655L40.9071 254.952L38.8023 249.968ZM26.7723 249.175L36.6976 244.984L30.4734 230.245L20.548 234.436L26.7723 249.175Z" fill="#F2E6D9"/>
<path d="M41.498 213.744L9.35009 217.517L8.71953 212.144L35.4941 209.002L34.551 200.965L7.77639 204.107L7.14583 198.733L33.9204 195.591L32.9773 187.554L6.20269 190.696L5.57214 185.323L32.3467 182.181L31.7108 176.762L42.8248 175.458L43.4553 180.831L37.7147 181.505L41.498 213.744Z" fill="#F2E6D9"/>
<path d="M6.67055 161.077L27.1599 164.132L14.1404 145.781L9.06383 145.024L9.86159 139.673L41.8763 144.446L41.0785 149.797L21.3666 146.858L34.4455 165.124L38.6852 165.85L37.8875 171.201L5.87279 166.428L6.67055 161.077Z" fill="#F2E6D9"/>
<path d="M13.179 127.245L15.1702 122.215L34.432 129.839L25.9161 109.013L21.1436 107.123L23.1348 102.093L53.2314 114.006L51.2402 119.036L32.7093 111.701L41.3022 132.459L45.2667 134.128L43.2756 139.158L13.179 127.245ZM13.2155 104.035L18.117 105.975L12.1095 121.152L7.20803 119.212L13.2155 104.035Z" fill="#F2E6D9"/>
<path d="M47.8873 64.1876L71.2484 41.8496L82.4334 53.5468L78.5232 57.2858L71.0771 49.4988L65.2619 55.0593L83.893 74.5436L79.9827 78.2826L61.3517 58.7983L55.5365 64.3589L62.9825 72.1459L59.0723 75.8849L47.8873 64.1876Z" fill="#F2E6D9"/>
<path d="M87.9605 30.3043L91.7949 34.4147L113.499 23.2322L112.254 17.7875L117.269 15.2037L124.531 47.8744L114.583 52.9997L112.105 48.1904L118.271 45.0135L114.826 28.6345L90.6145 41.109L82.9456 32.8881L87.9605 30.3043Z" fill="#F2E6D9"/>
<path d="M157.211 5.62944L161.638 26.7652L140.683 31.1542L142.892 41.6994L137.597 42.8085L130.961 11.1274L157.211 5.62944ZM155.234 22.5791L153.025 12.0338L137.366 15.3136L139.574 25.8589L155.234 22.5791Z" fill="#F2E6D9"/>
<path d="M262.487 28.5155L248.521 22.031L237.168 46.4823L232.261 44.2039L245.892 14.8456L264.766 23.6084L262.487 28.5155Z" fill="#F2E6D9"/>
<path d="M288.769 39.2036C290.572 40.6006 292.002 42.2539 293.057 44.1634C294.137 46.0917 294.821 48.1033 295.109 50.1981C295.421 52.3118 295.317 54.4345 294.797 56.566C294.276 58.6976 293.318 60.665 291.921 62.4684C290.524 64.2718 288.858 65.6918 286.924 66.7284C284.99 67.765 282.952 68.4084 280.808 68.6586C278.708 68.9033 276.589 68.7439 274.452 68.1802C272.339 67.6355 270.381 66.6646 268.578 65.2676C266.75 63.8517 265.296 62.1795 264.217 60.2512C263.137 58.3228 262.441 56.3018 262.128 54.1881C261.859 52.0689 261.985 49.9435 262.505 47.812C263.026 45.6804 263.984 43.713 265.381 41.9096C266.778 40.1062 268.444 38.6862 270.378 37.6496C272.312 36.613 274.329 35.9724 276.429 35.7276C278.554 35.5018 280.685 35.6707 282.822 36.2343C284.959 36.7979 286.941 37.7877 288.769 39.2036ZM269.695 45.2511C268.751 46.4696 268.095 47.7943 267.728 49.2253C267.384 50.6752 267.303 52.1137 267.485 53.5409C267.709 54.9627 268.178 56.3204 268.892 57.6141C269.63 58.9267 270.62 60.0643 271.863 61.0272C273.081 61.9711 274.406 62.6269 275.837 62.9945C277.293 63.381 278.724 63.4958 280.133 63.339C281.56 63.1578 282.92 62.7104 284.214 61.9968C285.532 61.302 286.663 60.3454 287.607 59.1269C288.551 57.9084 289.185 56.5864 289.51 55.1609C289.877 53.7299 289.961 52.313 289.761 50.9102C289.58 49.4829 289.12 48.1131 288.382 46.8005C287.668 45.5068 286.702 44.388 285.484 43.444C284.241 42.4812 282.892 41.8066 281.437 41.4201C280.006 41.0524 278.564 40.9498 277.113 41.1121C275.704 41.269 274.341 41.6948 273.023 42.3895C271.748 43.0787 270.639 44.0326 269.695 45.2511Z" fill="#F2E6D9"/>
<path d="M327.131 80.0836L310.136 93.4059L296.928 76.5564L288.448 83.2033L285.111 78.9454L310.585 58.9762L327.131 80.0836ZM311.056 85.8103L319.535 79.1635L309.665 66.5718L301.186 73.2187L311.056 85.8103Z" fill="#F2E6D9"/>
<path d="M321.878 103.083L336.669 96.514L347.555 121.025L317.974 134.164L315.777 129.219L325.624 124.846L316.934 105.28L307.087 109.653L304.891 104.709L319.682 98.1391L321.878 103.083ZM333.921 103.654L324.074 108.028L330.568 122.65L340.415 118.276L333.921 103.654Z" fill="#F2E6D9"/>
<path d="M319.849 139.35L351.922 134.987L352.652 140.348L325.939 143.982L327.03 152L353.743 148.366L354.472 153.727L327.76 157.361L328.85 165.379L355.563 161.745L356.292 167.106L329.58 170.74L330.315 176.147L319.227 177.655L318.498 172.294L324.225 171.515L319.849 139.35Z" fill="#F2E6D9"/>
<path d="M355.64 191.368L335.098 188.691L348.453 206.799L353.543 207.462L352.843 212.827L320.746 208.644L321.446 203.279L341.208 205.855L327.795 187.832L323.543 187.185L324.242 181.82L356.339 186.003L355.64 191.368Z" fill="#F2E6D9"/>
<path d="M349.755 225.314L347.857 230.38L328.458 223.111L337.356 243.778L342.162 245.579L340.264 250.645L309.953 239.288L311.851 234.221L330.514 241.214L321.541 220.618L317.546 219.023L319.444 213.957L349.755 225.314ZM350.146 248.521L345.209 246.671L350.937 231.386L355.873 233.235L350.146 248.521Z" fill="#F2E6D9"/>
<path d="M316.213 288.999L293.267 311.763L281.869 300.274L285.709 296.464L293.297 304.112L299.009 298.446L280.023 279.308L283.864 275.497L302.85 294.635L308.562 288.969L300.974 281.32L304.815 277.51L316.213 288.999Z" fill="#F2E6D9"/>
<path d="M276.77 323.614L272.861 319.575L251.366 331.155L252.711 336.576L247.745 339.252L239.883 306.72L249.734 301.412L252.3 306.175L246.194 309.465L249.94 325.778L273.918 312.86L281.736 320.938L276.77 323.614Z" fill="#F2E6D9"/>
<path d="M207.985 349.559L203.17 328.508L224.04 323.735L221.638 313.232L226.912 312.025L234.129 343.579L207.985 349.559ZM209.65 332.576L212.052 343.079L227.649 339.511L225.247 329.009L209.65 332.576Z" fill="#F2E6D9"/>
</svg>
