<svg width="366" height="359" viewBox="0 0 366 359" fill="none" xmlns="http://www.w3.org/2000/svg">
<path d="M97.4359 329.235L111.7 336.18L123.859 311.207L128.871 313.647L114.272 343.632L94.9958 334.247L97.4359 329.235Z" fill="#DA5B44"/>
<path d="M71.1263 318.01C69.295 316.536 67.8538 314.806 66.8027 312.819C65.7269 310.812 65.0605 308.727 64.8035 306.563C64.5219 304.38 64.6693 302.195 65.2457 300.009C65.8222 297.823 66.8471 295.815 68.3205 293.983C69.7938 292.152 71.5364 290.721 73.5483 289.69C75.5601 288.659 77.6725 288.034 79.8855 287.817C82.0538 287.605 84.2334 287.809 86.4242 288.431C88.5902 289.032 90.5889 290.069 92.4202 291.542C94.2763 293.036 95.7423 294.786 96.8181 296.793C97.8939 298.8 98.5727 300.895 98.8544 303.078C99.0914 305.267 98.9217 307.454 98.3452 309.64C97.7687 311.826 96.7438 313.834 95.2705 315.666C93.7971 317.497 92.0545 318.928 90.0427 319.959C88.0308 320.991 85.9408 321.612 83.7725 321.825C81.5794 322.017 79.3875 321.803 77.1966 321.181C75.0058 320.56 72.9824 319.503 71.1263 318.01ZM90.8902 312.142C91.8857 310.904 92.5863 309.552 92.9922 308.085C93.3733 306.598 93.484 305.117 93.3244 303.644C93.1201 302.175 92.6627 300.767 91.9521 299.421C91.2167 298.055 90.218 296.864 88.9559 295.848C87.7185 294.853 86.3662 294.152 84.899 293.746C83.4071 293.321 81.9343 293.175 80.4805 293.31C79.0068 293.47 77.5968 293.905 76.2505 294.615C74.8796 295.306 73.6963 296.27 72.7008 297.508C71.7053 298.745 71.0269 300.095 70.6658 301.557C70.2599 303.024 70.1468 304.482 70.3263 305.931C70.4859 307.405 70.9334 308.825 71.6688 310.191C72.3793 311.537 73.3533 312.708 74.5907 313.704C75.8528 314.719 77.2298 315.44 78.7218 315.866C80.189 316.271 81.6718 316.404 83.1702 316.265C84.624 316.13 86.0364 315.717 87.4074 315.026C88.7337 314.341 89.8947 313.379 90.8902 312.142Z" fill="#DA5B44"/>
<path d="M33.0333 275.733L50.7936 262.331L64.0808 279.939L72.942 273.253L76.2996 277.702L49.6781 297.791L33.0333 275.733ZM49.7017 270.138L40.8405 276.825L50.7701 289.983L59.6312 283.297L49.7017 270.138Z" fill="#DA5B44"/>
<path d="M39.3259 252.76L23.9642 259.247L13.214 233.791L43.9373 220.816L46.1059 225.951L35.8794 230.27L44.4611 250.591L54.6875 246.273L56.8561 251.408L41.4945 257.895L39.3259 252.76ZM26.9308 251.943L37.1573 247.625L30.7442 232.439L20.5178 236.757L26.9308 251.943Z" fill="#DA5B44"/>
<path d="M42.4242 216.26L9.30099 220.147L8.65131 214.611L36.2382 211.374L35.2665 203.093L7.67955 206.33L7.02986 200.794L34.6168 197.557L33.645 189.276L6.05811 192.513L5.40842 186.977L32.9953 183.74L32.3401 178.156L43.7913 176.812L44.441 182.348L38.5261 183.043L42.4242 216.26Z" fill="#DA5B44"/>
<path d="M6.61249 162.961L27.7235 166.109L14.309 147.201L9.07838 146.421L9.90034 140.908L42.8863 145.826L42.0643 151.339L21.7544 148.311L35.2301 167.131L39.5984 167.879L38.7765 173.392L5.79052 168.475L6.61249 162.961Z" fill="#DA5B44"/>
<path d="M13.1858 128.845L15.2374 123.662L35.0836 131.517L26.3093 110.059L21.3921 108.113L23.4437 102.93L54.4533 115.204L52.4017 120.387L33.3086 112.829L42.1622 134.217L46.247 135.936L44.1955 141.119L13.1858 128.845ZM13.2234 104.931L18.2736 106.93L12.0838 122.567L7.03367 120.568L13.2234 104.931Z" fill="#DA5B44"/>
<path d="M48.2982 65.0732L72.368 42.0574L83.8924 54.1096L79.8635 57.962L72.1916 49.9387L66.2 55.668L85.3962 75.7434L81.3674 79.5958L62.1711 59.5204L56.1795 65.2496L63.8514 73.2729L59.8226 77.1253L48.2982 65.0732Z" fill="#DA5B44"/>
<path d="M88.9307 30.7571L92.8814 34.9922L115.244 23.4704L113.961 17.8605L119.128 15.1983L126.61 48.8602L116.361 54.141L113.808 49.1858L120.161 45.9125L116.611 29.0367L91.6652 41.8896L83.7637 33.4193L88.9307 30.7571Z" fill="#DA5B44"/>
<path d="M142.349 32.0497L163.94 27.5277L159.378 5.75064L132.332 11.4154L139.169 44.0577L144.625 42.9149L142.349 32.0497ZM138.931 15.7286L155.065 12.3493L157.341 23.2145L141.206 26.5938L138.931 15.7286Z" fill="#DA5B44"/>
<path d="M265.675 29.2762L251.285 22.595L239.588 47.7881L234.532 45.4406L248.576 15.1916L268.022 24.2203L265.675 29.2762Z" fill="#DA5B44"/>
<path d="M292.187 40.0157C294.045 41.4551 295.517 43.1585 296.605 45.1259C297.718 47.1128 298.422 49.1854 298.719 51.3438C299.041 53.5216 298.933 55.7086 298.397 57.9049C297.861 60.1011 296.873 62.1282 295.434 63.9863C293.995 65.8445 292.279 67.3075 290.286 68.3756C288.294 69.4436 286.193 70.1065 283.984 70.3643C281.82 70.6164 279.637 70.4522 277.436 69.8714C275.259 69.3102 273.241 68.3098 271.383 66.8704C269.5 65.4115 268.002 63.6887 266.89 61.7018C265.777 59.715 265.06 57.6326 264.738 55.4548C264.461 53.2713 264.59 51.0814 265.126 48.8852C265.662 46.689 266.65 44.6618 268.09 42.8037C269.529 40.9456 271.245 39.4826 273.238 38.4145C275.23 37.3465 277.308 36.6864 279.472 36.4343C281.662 36.2016 283.857 36.3756 286.059 36.9563C288.261 37.537 290.303 38.5568 292.187 40.0157ZM272.534 46.2466C271.561 47.5021 270.886 48.8671 270.507 50.3415C270.153 51.8353 270.07 53.3175 270.257 54.788C270.488 56.2529 270.971 57.6518 271.706 58.9847C272.467 60.3371 273.487 61.5093 274.768 62.5013C276.023 63.4739 277.388 64.1496 278.863 64.5284C280.362 64.9266 281.837 65.0449 283.288 64.8833C284.759 64.6966 286.161 64.2356 287.494 63.5004C288.852 62.7846 290.017 61.7989 290.99 60.5434C291.962 59.288 292.616 57.9258 292.95 56.4571C293.329 54.9827 293.415 53.5228 293.209 52.0774C293.022 50.6069 292.548 49.1954 291.788 47.843C291.053 46.5101 290.057 45.3573 288.802 44.3848C287.521 43.3927 286.131 42.6976 284.632 42.2994C283.157 41.9206 281.672 41.8148 280.177 41.9821C278.726 42.1437 277.321 42.5824 275.963 43.2982C274.65 44.0084 273.507 44.9912 272.534 46.2466Z" fill="#DA5B44"/>
<path d="M331.051 81.5847L313.54 95.3112L299.931 77.9504L291.195 84.7989L287.756 80.4119L314.003 59.8368L331.051 81.5847ZM314.488 87.4851L323.225 80.6366L313.055 67.6629L304.318 74.5114L314.488 87.4851Z" fill="#DA5B44"/>
<path d="M325.182 104.67L340.422 97.9007L351.639 123.155L321.159 136.693L318.896 131.598L329.042 127.092L320.088 106.932L309.942 111.438L307.68 106.344L322.919 99.5751L325.182 104.67ZM337.59 105.258L327.445 109.764L334.136 124.829L344.281 120.323L337.59 105.258Z" fill="#DA5B44"/>
<path d="M322.756 141.22L355.802 136.724L356.553 142.247L329.031 145.992L330.155 154.253L357.677 150.509L358.429 156.032L330.906 159.777L332.03 168.038L359.553 164.294L360.304 169.817L332.781 173.562L333.539 179.132L322.115 180.687L321.363 175.163L327.264 174.36L322.756 141.22Z" fill="#DA5B44"/>
<path d="M359.542 193.851L338.377 191.093L352.137 209.75L357.381 210.434L356.661 215.961L323.59 211.651L324.31 206.124L344.672 208.777L330.853 190.208L326.471 189.541L327.192 184.014L360.263 188.323L359.542 193.851Z" fill="#DA5B44"/>
<path d="M353.598 228.083L351.642 233.302L331.654 225.813L340.822 247.107L345.774 248.962L343.818 254.182L312.588 242.48L314.544 237.261L333.773 244.465L324.527 223.245L320.412 221.601L322.367 216.381L353.598 228.083ZM354 251.993L348.914 250.088L354.815 234.339L359.901 236.245L354 251.993Z" fill="#DA5B44"/>
<path d="M319.665 292.49L296.022 315.944L284.278 304.106L288.236 300.18L296.054 308.061L301.939 302.223L282.377 282.504L286.334 278.578L305.896 298.297L311.781 292.458L303.963 284.577L307.921 280.652L319.665 292.49Z" fill="#DA5B44"/>
<path d="M279.67 327.548L275.642 323.386L253.496 335.317L254.882 340.903L249.765 343.659L241.664 310.141L251.815 304.672L254.458 309.58L248.167 312.969L252.027 329.777L276.732 316.467L284.788 324.791L279.67 327.548Z" fill="#DA5B44"/>
<path d="M209.695 353.846L204.734 332.157L226.237 327.238L223.762 316.416L229.196 315.174L236.632 347.684L209.695 353.846ZM211.411 336.348L213.886 347.169L229.955 343.493L227.48 332.672L211.411 336.348Z" fill="#DA5B44"/>
</svg>
