<svg width="149" height="614" viewBox="0 0 149 614" fill="none" xmlns="http://www.w3.org/2000/svg">
<path d="M108.4 236.605L147.982 142.848L146.362 96.308L131.29 93.2796L128.789 130.021L110.333 157.308L123.091 84.5885L100.295 7.62627L85.5795 13.996L100.946 84.0754L85.3606 137.198L87.0492 65.448L68.2871 1L51.6326 6.8191L66.6423 63.2393L57.6803 138.581L53.9841 70.4975L37.805 10.4858L22.42 20.3031L35.1783 81.4161L29.3433 148.085L26.5602 106.789L14.4712 70.6539L1 78.5817L9.18026 113.984L12.9765 161.707L11.4192 191.497L25.0342 235.059L15.5344 612.825H97.5434L108.4 236.605Z" fill="#DA5B44" stroke="#DA5B44" stroke-width="0.450866" stroke-miterlimit="10"/>
</svg>
