<svg width="149" height="613" viewBox="0 0 149 613" fill="none" xmlns="http://www.w3.org/2000/svg">
<path d="M40.5639 236.367L0.982162 142.611L2.60197 96.071L17.6742 93.0425L20.1758 129.784L38.6314 157.071L25.8732 84.3514L48.6691 7.38921L63.3849 13.7589L48.0187 83.8383L63.6038 136.961L61.9152 65.211L80.6773 0.762939L97.3317 6.58204L82.3221 63.0022L91.2841 138.344L94.9802 70.2605L111.159 10.2487L126.544 20.0661L113.786 81.1791L119.621 147.848L122.404 106.552L134.493 70.4169L147.964 78.3446L139.784 113.747L135.988 161.47L137.545 191.26L123.93 234.822L133.43 612.588H51.4209L40.5639 236.367Z" fill="#DA5B44" stroke="#DA5B44" stroke-width="0.450866" stroke-miterlimit="10"/>
</svg>
