<svg width="295" height="1216" viewBox="0 0 295 1216" fill="none" xmlns="http://www.w3.org/2000/svg">
<path d="M284.481 213.344L278.355 279.332" stroke="#F2E6D9" stroke-width="20.0248" stroke-miterlimit="10"/>
<path d="M272.23 294.798L221.214 373.153" stroke="#F2E6D9" stroke-width="20.0248" stroke-miterlimit="10"/>
<path d="M204.912 26.7366L227.339 172.105" stroke="#F2E6D9" stroke-width="20.0248" stroke-miterlimit="10"/>
<path d="M227.339 182.352L188.562 310.264" stroke="#F2E6D9" stroke-width="20.0248" stroke-miterlimit="10"/>
<path d="M133.459 2.00014L154.885 127.779" stroke="#F2E6D9" stroke-width="20.0248" stroke-miterlimit="10"/>
<path d="M154.885 141.184L134.483 285.515" stroke="#F2E6D9" stroke-width="20.0248" stroke-miterlimit="10"/>
<path d="M68.166 22.6141L84.4803 145.307" stroke="#F2E6D9" stroke-width="20.0248" stroke-miterlimit="10"/>
<path d="M86.5299 157.675L76.329 283.454" stroke="#F2E6D9" stroke-width="20.0248" stroke-miterlimit="10"/>
<path d="M9.99996 145.307L24.2882 213.344" stroke="#F2E6D9" stroke-width="20.0248" stroke-miterlimit="10"/>
<path d="M24.2882 225.724L28.3638 315.411" stroke="#F2E6D9" stroke-width="20.0248" stroke-miterlimit="10"/>
<path d="M31.1673 449.554L182.826 471.44L202.344 333.363L50.6856 311.465L31.1673 449.554Z" fill="#F2E6D9" stroke="#F2E6D9" stroke-width="10.6014" stroke-miterlimit="10"/>
<path d="M144.06 516.472L144.06 1316.13H56.2336L56.2336 516.472H144.06Z" fill="#F2E6D9" stroke="#F2E6D9" stroke-width="20.0248" stroke-miterlimit="10"/>
</svg>
