<svg width="565" height="1315" viewBox="0 0 565 1315" fill="none" xmlns="http://www.w3.org/2000/svg">
<path d="M228.051 193.789L207.336 256.739" stroke="#F2E6D9" stroke-width="20.0248" stroke-miterlimit="10"/>
<path d="M206.781 273.365L222.293 365.569" stroke="#F2E6D9" stroke-width="20.0248" stroke-miterlimit="10"/>
<path d="M375.473 54.4326L296.902 178.776" stroke="#F2E6D9" stroke-width="20.0248" stroke-miterlimit="10"/>
<path d="M292.812 188.173L277.328 320.933" stroke="#F2E6D9" stroke-width="20.0248" stroke-miterlimit="10"/>
<path d="M450.862 60.2632L381.025 167.045" stroke="#F2E6D9" stroke-width="20.0248" stroke-miterlimit="10"/>
<path d="M375.676 179.336L336.79 319.82" stroke="#F2E6D9" stroke-width="20.0248" stroke-miterlimit="10"/>
<path d="M502.505 105.219L438.587 211.21" stroke="#F2E6D9" stroke-width="20.0248" stroke-miterlimit="10"/>
<path d="M431.773 221.733L390.936 341.135" stroke="#F2E6D9" stroke-width="20.0248" stroke-miterlimit="10"/>
<path d="M506.881 240.931L466.631 297.615" stroke="#F2E6D9" stroke-width="20.0248" stroke-miterlimit="10"/>
<path d="M461.691 308.966L422.165 389.578" stroke="#F2E6D9" stroke-width="20.0248" stroke-miterlimit="10"/>
<path d="M366.067 511.459L218.273 471.01L255.473 336.614L403.272 377.052L366.067 511.459Z" fill="#F2E6D9" stroke="#F2E6D9" stroke-width="10.6014" stroke-miterlimit="10"/>
<path d="M235.849 527.77L-83.243 1261.01L-2.71198 1296.05L316.38 562.816L235.849 527.77Z" fill="#F2E6D9" stroke="#F2E6D9" stroke-width="20.0248" stroke-miterlimit="10"/>
</svg>
