<svg width="394" height="1719" viewBox="0 0 394 1719" fill="none" xmlns="http://www.w3.org/2000/svg">
<path d="M380.001 284.812L371.833 372.802" stroke="#F2E6D9" stroke-width="26.7016" stroke-miterlimit="10"/>
<path d="M363.667 393.425L295.641 497.907" stroke="#F2E6D9" stroke-width="26.7016" stroke-miterlimit="10"/>
<path d="M273.9 35.9841L303.806 229.822" stroke="#F2E6D9" stroke-width="26.7016" stroke-miterlimit="10"/>
<path d="M303.806 243.487L252.099 414.048" stroke="#F2E6D9" stroke-width="26.7016" stroke-miterlimit="10"/>
<path d="M178.624 3.00003L207.194 170.718" stroke="#F2E6D9" stroke-width="26.7016" stroke-miterlimit="10"/>
<path d="M207.194 188.592L179.99 381.048" stroke="#F2E6D9" stroke-width="26.7016" stroke-miterlimit="10"/>
<path d="M91.5615 30.4875L113.315 194.09" stroke="#F2E6D9" stroke-width="26.7016" stroke-miterlimit="10"/>
<path d="M116.047 210.582L102.445 378.299" stroke="#F2E6D9" stroke-width="26.7016" stroke-miterlimit="10"/>
<path d="M13.9999 194.09L33.0522 284.813" stroke="#F2E6D9" stroke-width="26.7016" stroke-miterlimit="10"/>
<path d="M33.0518 301.32L38.4863 420.912" stroke="#F2E6D9" stroke-width="26.7016" stroke-miterlimit="10"/>
<path d="M42.226 599.781L244.451 628.964L270.478 444.848L68.2522 415.649L42.226 599.781Z" fill="#F2E6D9" stroke="#F2E6D9" stroke-width="14.1361" stroke-miterlimit="10"/>
<path d="M192.76 689.012L192.76 1755.3H75.6497L75.6497 689.012H192.76Z" fill="#F2E6D9" stroke="#F2E6D9" stroke-width="26.7016" stroke-miterlimit="10"/>
</svg>
