<svg width="295" height="745" viewBox="0 0 295 745" fill="none" xmlns="http://www.w3.org/2000/svg">
<path d="M10 213.344L16.1252 279.332" stroke="#F2E6D9" stroke-width="20.0248" stroke-miterlimit="10"/>
<path d="M22.2505 294.798L73.2665 373.153" stroke="#F2E6D9" stroke-width="20.0248" stroke-miterlimit="10"/>
<path d="M89.569 26.7366L67.1413 172.105" stroke="#F2E6D9" stroke-width="20.0248" stroke-miterlimit="10"/>
<path d="M67.1413 182.352L105.919 310.264" stroke="#F2E6D9" stroke-width="20.0248" stroke-miterlimit="10"/>
<path d="M161.022 2.00014L139.596 127.779" stroke="#F2E6D9" stroke-width="20.0248" stroke-miterlimit="10"/>
<path d="M139.596 141.184L159.997 285.515" stroke="#F2E6D9" stroke-width="20.0248" stroke-miterlimit="10"/>
<path d="M226.315 22.6141L210 145.307" stroke="#F2E6D9" stroke-width="20.0248" stroke-miterlimit="10"/>
<path d="M207.951 157.675L218.152 283.454" stroke="#F2E6D9" stroke-width="20.0248" stroke-miterlimit="10"/>
<path d="M284.481 145.307L270.193 213.344" stroke="#F2E6D9" stroke-width="20.0248" stroke-miterlimit="10"/>
<path d="M270.193 225.724L266.117 315.411" stroke="#F2E6D9" stroke-width="20.0248" stroke-miterlimit="10"/>
<path d="M263.313 449.554L111.655 471.44L92.1369 333.363L243.795 311.465L263.313 449.554Z" fill="#F2E6D9" stroke="#F2E6D9" stroke-width="10.6014" stroke-miterlimit="10"/>
<path d="M150.421 516.472L150.421 1316.13H238.247L238.247 516.472H150.421Z" fill="#F2E6D9" stroke="#F2E6D9" stroke-width="20.0248" stroke-miterlimit="10"/>
</svg>
