<svg width="672" height="1315" viewBox="0 0 672 1315" fill="none" xmlns="http://www.w3.org/2000/svg">
<path d="M336.015 193.789L356.73 256.739" stroke="#F2E6D9" stroke-width="20.0248" stroke-miterlimit="10"/>
<path d="M357.285 273.365L341.773 365.569" stroke="#F2E6D9" stroke-width="20.0248" stroke-miterlimit="10"/>
<path d="M188.592 54.4326L267.164 178.776" stroke="#F2E6D9" stroke-width="20.0248" stroke-miterlimit="10"/>
<path d="M271.253 188.173L286.738 320.933" stroke="#F2E6D9" stroke-width="20.0248" stroke-miterlimit="10"/>
<path d="M113.204 60.2632L183.041 167.045" stroke="#F2E6D9" stroke-width="20.0248" stroke-miterlimit="10"/>
<path d="M188.39 179.336L227.276 319.82" stroke="#F2E6D9" stroke-width="20.0248" stroke-miterlimit="10"/>
<path d="M61.5603 105.219L125.478 211.21" stroke="#F2E6D9" stroke-width="20.0248" stroke-miterlimit="10"/>
<path d="M132.293 221.733L173.13 341.135" stroke="#F2E6D9" stroke-width="20.0248" stroke-miterlimit="10"/>
<path d="M57.1845 240.931L97.4351 297.615" stroke="#F2E6D9" stroke-width="20.0248" stroke-miterlimit="10"/>
<path d="M102.375 308.966L141.901 389.578" stroke="#F2E6D9" stroke-width="20.0248" stroke-miterlimit="10"/>
<path d="M197.999 511.459L345.793 471.01L308.592 336.614L160.794 377.052L197.999 511.459Z" fill="#F2E6D9" stroke="#F2E6D9" stroke-width="10.6014" stroke-miterlimit="10"/>
<path d="M328.217 527.77L647.309 1261.01L566.778 1296.05L247.685 562.816L328.217 527.77Z" fill="#F2E6D9" stroke="#F2E6D9" stroke-width="20.0248" stroke-miterlimit="10"/>
</svg>
