<svg width="1440" height="313" viewBox="0 0 1440 313" fill="none" xmlns="http://www.w3.org/2000/svg">
<path d="M515.197 192.096C505.019 163.806 480.276 143.699 454.958 127.461C444.158 138.339 424.59 132.723 414.363 121.3C404.136 109.876 399.787 94.4547 392.15 81.1638C384.512 67.8728 370.708 55.5813 355.588 58.1989C362.515 63.7448 365.093 73.2512 365.013 82.1208C364.934 90.9904 362.626 99.6963 361.666 108.518C360.448 119.909 361.478 131.427 364.697 142.42C366.139 147.341 368.04 152.352 367.372 157.433C366.623 162.931 363.041 167.575 359.221 171.601C347.967 183.34 333.976 192.109 318.499 197.121C326.494 190.516 328.742 178.84 326.658 168.689C324.575 158.538 318.924 149.52 313.21 140.867C299.536 120.092 285.184 99.7928 270.155 79.9685C263.449 89.0556 260.187 100.224 260.947 111.488C261.881 124.589 268.263 137.356 266.227 150.342C264.309 162.609 255.003 173.018 242.786 175.465L231.84 143.509C228.715 134.382 225.393 124.862 218.68 117.871C210.166 109.022 197.592 105.543 187.019 99.2045C176.445 92.8664 167.059 80.512 171.548 69.041C164.554 72.4054 162.355 81.4257 163.001 89.1535C163.648 96.8813 166.312 104.464 165.648 112.218C164.238 128.525 149.126 139.698 140.475 153.603C136.32 160.377 133.629 167.945 132.577 175.82C131.525 183.696 132.134 191.704 134.366 199.329C121.282 200.583 110.508 188.372 106.474 175.855C102.44 163.338 102.593 149.717 98.2038 137.321C93.655 124.683 84.6678 114.126 72.9134 107.613C59.8799 100.442 44.4753 98.7604 31.0414 92.4358C17.6074 86.1112 5.63468 71.4753 10.3093 57.3836C-1.6834 75.1763 -14.2309 95.227 -11.0393 116.436C-9.80037 124.629 -6.2308 132.35 -4.72458 140.519C-1.20868 159.606 -10.3197 180.398 -26.734 190.771C-31.0333 173.716 -44.2748 160.715 -55.145 146.827C-66.0153 132.939 -75.2625 115.076 -69.7308 98.3809C-78.2768 112.91 -92.1834 123.639 -101.26 137.896C-110.336 152.153 -112.724 173.526 -99.5084 184.032C-108.336 158.686 -103.545 130.449 -110.471 104.53C-115.93 84.3928 -128.145 66.7406 -145.072 54.5267C-142.57 62.3827 -142.172 70.7568 -143.918 78.8147C-145.664 86.8725 -149.493 94.3325 -155.024 100.451C-160.718 106.597 -167.974 111.1 -173.94 116.971C-179.907 122.842 -228.413 155.823 -227.129 164.096C-213.437 251.858 -243.79 242.113 -218.703 327.326C-214.069 343.063 -182.566 415.88 -171.538 428.026C-157.564 443.415 -114.523 444.011 -93.9627 447.129C-75.4115 449.939 -65.0215 435.315 -46.4564 432.591C-25.7396 429.53 -12.8648 435.429 7.40705 430.151C29.014 424.526 60.7688 407.788 82.8537 404.418C114.799 399.57 144.45 407.317 176.395 402.469C226.787 394.81 278.189 397.111 329.161 397.679C353.22 397.934 396.12 410.209 420.028 407.551C443.937 404.892 515.903 371.567 532.981 354.647C552.191 335.605 544.483 271.323 551.397 245.175C557.298 222.835 539.954 268.905 539.216 245.804C538.752 230.811 528.753 198.383 515.197 192.096Z" fill="#DA5B44"/>
<path d="M1133.89 184.463C1123.72 156.334 1098.98 136.347 1073.67 120.207C1062.87 131.027 1043.3 125.449 1033.08 114.093C1022.85 102.736 1018.51 87.4021 1010.87 74.1878C1003.24 60.9735 989.441 48.7549 974.319 51.3622C981.246 56.875 983.82 66.3275 983.738 75.1473C983.656 83.9672 981.345 92.6251 980.383 101.398C979.162 112.725 980.189 124.178 983.404 135.109C984.845 140.002 986.744 144.984 986.075 150.037C985.325 155.504 981.741 160.123 977.92 164.128C966.663 175.805 952.669 184.528 937.192 189.516C945.188 182.946 947.439 171.335 945.359 161.242C943.278 151.148 937.63 142.183 931.918 133.58C918.251 112.925 903.905 92.7434 888.882 73.0346C882.174 82.0727 878.908 93.1798 879.665 104.381C880.595 117.407 886.973 130.101 884.933 143.014C883.012 155.213 873.703 165.567 861.486 168.004L850.549 136.23C847.426 127.155 844.108 117.69 837.396 110.739C828.886 101.942 816.313 98.4863 805.741 92.1868C795.17 85.8873 785.787 73.6048 790.28 62.1968C783.284 65.5444 781.083 74.5148 781.727 82.199C782.372 89.8833 785.033 97.4224 784.368 105.133C782.953 121.35 767.837 132.464 759.183 146.294C755.025 153.031 752.333 160.558 751.278 168.389C750.224 176.22 750.831 184.183 753.06 191.766C739.976 193.016 729.206 180.877 725.176 168.431C721.146 155.985 721.304 142.44 716.918 130.116C712.373 117.55 703.389 107.055 691.637 100.581C678.606 93.4542 663.202 91.7863 649.77 85.5011C636.338 79.2158 624.37 64.6653 629.048 50.6513C617.051 68.3478 604.497 88.2897 607.683 109.379C608.919 117.526 612.487 125.203 613.99 133.325C617.501 152.304 608.384 172.982 591.967 183.302C587.673 166.344 574.435 153.419 563.569 139.612C552.703 125.805 543.461 108.045 548.998 91.442C540.448 105.892 526.538 116.565 517.457 130.745C508.377 144.924 505.983 166.179 519.196 176.621C510.375 151.42 515.175 123.34 508.256 97.5681C502.803 77.5456 490.593 59.9959 473.67 47.8553C476.17 55.6665 476.565 63.9937 474.817 72.0068C473.068 80.02 469.237 87.4394 463.705 93.5256C458.009 99.6386 450.752 104.118 444.784 109.958C438.816 115.798 390.3 148.608 391.582 156.834C405.249 244.1 373.495 207.235 398.558 291.964C403.187 307.611 434.668 380.011 445.693 392.086C459.662 407.385 502.702 407.964 523.261 411.06C541.812 413.848 552.206 399.303 570.771 396.589C591.489 393.539 604.362 399.402 624.635 394.148C646.243 388.547 678.002 371.894 700.088 368.537C732.033 363.706 761.682 371.402 793.628 366.571C844.022 358.941 895.422 361.214 946.393 361.764C970.451 362.01 1013.35 374.205 1037.26 371.554C1061.16 368.904 1133.14 335.745 1150.22 318.915C1169.44 299.973 1161.75 236.054 1168.67 210.05C1174.58 187.834 1158.63 260.834 1157.89 237.862C1157.43 222.954 1147.45 190.711 1133.89 184.463Z" fill="#DA5B44"/>
<path d="M1777.78 175.466C1767.59 146.804 1742.83 126.421 1717.5 109.957C1706.71 120.968 1687.13 115.267 1676.89 103.69C1666.66 92.112 1662.3 76.4885 1654.65 63.021C1647.01 49.5535 1633.19 37.0942 1618.07 39.7356C1625.01 45.3575 1627.59 54.9884 1627.52 63.9723C1627.44 72.9562 1625.14 81.773 1624.19 90.7083C1622.98 102.244 1624.01 113.912 1627.24 125.049C1628.68 130.035 1630.59 135.111 1629.93 140.258C1629.18 145.826 1625.6 150.527 1621.78 154.603C1610.54 166.486 1596.55 175.358 1581.08 180.425C1589.07 173.74 1591.31 161.915 1589.22 151.632C1587.13 141.348 1581.47 132.211 1575.75 123.442C1562.06 102.39 1547.7 81.8191 1532.65 61.7291C1525.95 70.9289 1522.7 82.2396 1523.47 93.6495C1524.41 106.919 1530.8 119.856 1528.77 133.007C1526.86 145.431 1517.56 155.968 1505.35 158.439L1494.38 126.064C1491.25 116.817 1487.92 107.172 1481.2 100.086C1472.68 91.1172 1460.1 87.5847 1449.53 81.1578C1438.95 74.731 1429.55 62.211 1434.04 50.595C1427.04 53.9981 1424.85 63.1333 1425.5 70.9612C1426.15 78.7891 1428.82 86.471 1428.16 94.3247C1426.77 110.841 1411.66 122.149 1403.02 136.227C1398.87 143.086 1396.18 150.75 1395.13 158.726C1394.09 166.702 1394.7 174.814 1396.94 182.539C1383.86 183.8 1373.07 171.425 1369.03 158.743C1364.99 146.062 1365.13 132.265 1360.74 119.707C1356.18 106.903 1347.18 96.204 1335.42 89.5988C1322.39 82.3267 1306.98 80.613 1293.54 74.1979C1280.1 67.7827 1268.12 52.9501 1272.79 38.6797C1260.8 56.694 1248.27 76.9949 1251.48 98.48C1252.72 106.779 1256.29 114.602 1257.81 122.877C1261.33 142.213 1252.24 163.267 1235.83 173.763C1231.52 156.485 1218.27 143.307 1207.39 129.233C1196.51 115.159 1187.25 97.0597 1192.77 80.1526C1184.23 94.8632 1170.33 105.721 1161.27 120.156C1152.2 134.591 1149.82 156.239 1163.05 166.888C1154.2 141.21 1158.98 112.611 1152.03 86.3535C1146.56 65.9532 1134.33 48.0652 1117.4 35.6824C1119.9 43.6414 1120.31 52.1239 1118.57 60.2845C1116.83 68.4451 1113 75.9988 1107.48 82.193C1101.78 88.4142 1094.53 92.9703 1088.57 98.9129C1082.61 104.856 1034.12 138.23 1035.41 146.61C1049.16 235.513 1015.93 170.113 1041.08 256.442C1045.72 272.385 1077.28 346.162 1088.31 358.472C1102.3 374.069 1145.34 374.701 1165.9 377.874C1184.46 380.732 1194.84 365.926 1213.4 363.18C1234.12 360.093 1247 366.077 1267.27 360.744C1288.87 355.061 1320.61 338.127 1342.7 334.729C1374.64 329.84 1404.3 337.707 1436.24 332.817C1486.63 325.093 1538.03 327.458 1589.01 328.067C1613.07 328.341 1655.98 340.804 1679.89 338.127C1703.79 335.45 1775.74 301.743 1792.81 284.616C1812.01 265.341 1804.25 200.225 1811.15 173.744C1817.04 151.12 1802.59 253.282 1801.84 229.882C1801.36 214.696 1791.34 181.844 1777.78 175.466Z" fill="#DA5B44"/>
</svg>
