<svg width="423" height="1537" viewBox="0 0 423 1537" fill="none" xmlns="http://www.w3.org/2000/svg">
<path d="M31.3127 22.2429L391.626 526.348" stroke="#F2E6D9" stroke-width="76.23" stroke-miterlimit="10"/>
<path d="M345.133 574.819L102.572 1483.52" stroke="#F2E6D9" stroke-width="76.23" stroke-miterlimit="10"/>
<path d="M262.072 1503.83L70.8869 1454.56" stroke="#F2E6D9" stroke-width="76.23" stroke-miterlimit="10"/>
<path d="M89.4334 138.081L109.146 164.982L122.597 155.126L119.189 150.476L132.64 140.619L116.334 118.368L89.4334 138.081ZM106.179 132.721L115.133 126.16L124.849 139.418L115.894 145.979L106.179 132.721ZM97.2246 139.283L101.682 136.016L114.806 153.924L110.348 157.191L97.2246 139.283ZM127.733 190.346L154.634 170.633L151.339 166.137L128.934 182.555L118.346 168.105L140.75 151.687L137.455 147.191L110.554 166.904L127.733 190.346ZM156.018 172.522L129.117 192.235L132.412 196.731L141.366 190.17L154.405 207.963L145.451 214.524L148.745 219.021L162.196 209.164L158.901 204.668L172.351 194.811L156.018 172.522ZM145.862 186.875L154.817 180.313L164.56 193.61L155.606 200.172L145.862 186.875ZM153.451 225.442L170.014 213.304L166.853 236.235L163.336 238.931L166.631 243.427L193.531 223.714L190.237 219.218L173.02 231.834L176.086 208.855L180.352 205.729L177.057 201.233L150.156 220.946L153.451 225.442ZM190.437 228.922L192.661 231.958L174.753 245.081L172.528 242.045L168.032 245.34L175.804 255.946L180.301 252.651L178.048 249.577L195.956 236.454L198.209 239.528L202.705 236.233L194.933 225.627L190.437 228.922ZM180.512 262.371L197.076 250.233L193.915 273.164L190.397 275.86L193.692 280.356L220.593 260.643L217.298 256.147L200.081 268.763L203.147 245.784L207.413 242.658L204.118 238.162L177.217 257.874L180.512 262.371ZM208.16 271.807C200.551 277.383 199.087 288.202 204.691 295.849C210.943 304.381 220.204 304.446 228.546 299.869L218.295 285.88L213.876 289.119L219.874 297.304C215.847 297.774 211.711 296.08 209.149 292.583C205.347 287.395 206.333 280.116 211.483 276.342C216.594 272.597 223.832 273.849 227.634 279.037C230.816 283.38 230.56 289.237 227.352 293.242L230.647 297.738C236.325 291.865 237.076 282.572 232.091 275.77C226.487 268.123 215.73 266.26 208.16 271.807ZM233.993 297.711L237.288 302.207L241.746 298.94L246.646 305.627L224.241 322.045L227.536 326.541L249.941 310.123L254.841 316.81L250.383 320.077L253.678 324.573L262.632 318.012L242.947 291.149L233.993 297.711ZM246.63 353.081C252.178 360.652 262.935 362.515 270.544 356.939C278.115 351.392 279.579 340.573 274.031 333.002C268.427 325.355 257.67 323.492 250.099 329.039C242.49 334.615 241.026 345.434 246.63 353.081ZM253.422 333.574C258.533 329.829 265.771 331.081 269.573 336.269C273.318 341.38 272.332 348.659 267.221 352.405C262.072 356.178 254.834 354.926 251.088 349.815C247.286 344.627 248.272 337.348 253.422 333.574ZM275.222 391.615L302.123 371.902L298.828 367.406L276.423 383.824L265.835 369.374L288.239 352.956L284.944 348.46L258.044 368.173L275.222 391.615ZM303.507 373.791L276.606 393.504L279.901 398L288.855 391.439L301.894 409.232L292.94 415.793L296.235 420.29L309.685 410.433L306.39 405.937L319.841 396.08L303.507 373.791ZM293.352 388.144L302.306 381.582L312.05 394.879L303.095 401.441L293.352 388.144ZM298.631 423.56L302.292 428.556L307.288 424.895L303.627 419.899L298.631 423.56ZM331.641 412.183L304.74 431.896L308.035 436.393L316.989 429.831L330.028 447.624L321.074 454.186L324.368 458.682L337.819 448.825L334.524 444.329L347.974 434.473L331.641 412.183ZM321.485 426.536L330.439 419.975L340.183 433.271L331.229 439.833L321.485 426.536ZM342.957 484.049L369.858 464.336L366.564 459.84L344.159 476.258L333.57 461.808L355.975 445.39L352.68 440.894L325.779 460.607L342.957 484.049Z" fill="#DA5B44"/>
</svg>
