<svg width="729" height="3354" viewBox="0 0 729 3354" fill="none" xmlns="http://www.w3.org/2000/svg">
<path d="M0 768.07H709.252" stroke="#F2E6D9" stroke-width="76.2309" stroke-miterlimit="10"/>
<path d="M65.5586 906.662L646.133 912.761" stroke="#F2E6D9" stroke-width="76.2309" stroke-miterlimit="10"/>
<path d="M117.243 1046.01H600.852" stroke="#F2E6D9" stroke-width="76.2309" stroke-miterlimit="10"/>
<path d="M12.0444 1324.86H721.296" stroke="#F2E6D9" stroke-width="76.2309" stroke-miterlimit="10"/>
<path d="M77.7553 1186.28L658.33 1180.18" stroke="#F2E6D9" stroke-width="76.2309" stroke-miterlimit="10"/>
<path d="M361 490L350 1749" stroke="#F2E6D9" stroke-width="76.2309" stroke-miterlimit="10"/>
<path d="M364.536 417.105C462.969 417.105 542.764 332.463 542.764 228.053C542.764 123.642 462.969 39 364.536 39C266.104 39 186.308 123.642 186.308 228.053C186.308 332.463 266.104 417.105 364.536 417.105Z" fill="#F2E6D9" stroke="#F2E6D9" stroke-width="76.2309" stroke-miterlimit="10"/>
<path d="M515.01 163.547L382.137 196.553L453.414 483.494L586.287 450.489L515.01 163.547Z" fill="#F2E6D9" stroke="#F2E6D9" stroke-width="76.2309" stroke-miterlimit="10"/>
<path d="M367.08 1817.71L330.031 1816.8L246.33 3194.44H315.09V3353.91H40.6592V3352.24H37L52.2462 2161.36L74.0431 1554H671.437L670.5 2372.31L669.564 3190.63L728.109 3193.83V3353.61H457.337V3351.93L388.424 1817.71H367.08Z" fill="#DA5B44"/>
</svg>
