<svg width="152" height="280" viewBox="0 0 152 280" fill="none" xmlns="http://www.w3.org/2000/svg">
<path d="M150.912 168.375C149.199 154.613 145.921 141.092 141.141 128.074C135.835 111.866 130.499 95.5832 125.134 79.2258C117.042 92.1362 118.724 111.35 119.059 128.505C119.394 145.66 115.523 166.538 103.48 170.674C112.395 136.71 107.552 96.4034 90.9882 68.3395C84.8386 58.0002 77.5265 49.2301 72.2714 37.8147C67.0164 26.3993 65.3397 10.9481 71.0594 0.10119C59.5637 12.7471 57.3533 35.9522 59.4838 56.0612C61.6143 76.1703 67.1033 95.5136 67.5322 115.983C67.9611 136.453 61.5841 158.991 47.4377 165.28C52.7171 131.837 47.5759 97.5788 32.712 67.1586C39.7334 94.0251 27.8094 122.259 16.731 146.192C5.65261 170.125 -5.28396 199.97 3.39309 225.536C5.57904 232.826 8.86551 239.74 13.1388 246.039C18.7275 256.122 27.1463 264.349 37.3564 269.703C39.2836 271.146 41.477 272.193 43.8103 272.786C53.9874 277 64.8968 279.163 75.912 279.149C86.9271 279.135 97.8311 276.945 107.998 272.705C115.65 270.123 122.668 265.947 128.587 260.451C149.258 242.687 153.955 201.965 150.912 168.375Z" fill="#DA5B44"/>
</svg>
